<svg width="32" height="32" viewBox="0 0 32 32" fill="none" xmlns="http://www.w3.org/2000/svg">
  <!-- Background -->
  <circle cx="16" cy="16" r="15" fill="#059669" stroke="#047857" stroke-width="2"/>
  
  <!-- Heart shape -->
  <path d="M16 26 C16 26, 8 20, 8 14 C8 11, 10 9, 13 9 C14.5 9, 15.5 10, 16 11 C16.5 10, 17.5 9, 19 9 C22 9, 24 11, 24 14 C24 20, 16 26, 16 26 Z" 
        fill="#ef4444"/>
  
  <!-- Pulse line -->
  <path d="M4 16 L8 16 L10 12 L12 20 L14 8 L16 24 L18 8 L20 20 L22 12 L24 16 L28 16" 
        stroke="white" stroke-width="2" fill="none" stroke-linecap="round" stroke-linejoin="round"/>
  
  <!-- Highlight -->
  <circle cx="12" cy="10" r="1.5" fill="rgba(255,255,255,0.3)"/>
</svg>