<svg width="32" height="32" viewBox="0 0 32 32" fill="none" xmlns="http://www.w3.org/2000/svg">
  <!-- Background -->
  <circle cx="16" cy="16" r="15" fill="#7c3aed" stroke="#6d28d9" stroke-width="2"/>
  
  <!-- Brain outline -->
  <path d="M10 12 C8 12, 7 13, 7 15 C7 16, 7.5 17, 8 17.5 C7.5 18, 7 19, 7 20 C7 22, 9 24, 11 24 L21 24 C23 24, 25 22, 25 20 C25 19, 24.5 18, 24 17.5 C24.5 17, 25 16, 25 15 C25 13, 23 12, 22 12 C21.5 11, 20.5 10, 19 10 L13 10 C11.5 10, 10.5 11, 10 12 Z" 
        fill="white"/>
  
  <!-- Brain details -->
  <path d="M12 14 C13 13, 15 13, 16 14 C17 13, 19 13, 20 14" stroke="#7c3aed" stroke-width="1" fill="none"/>
  <path d="M11 17 C12 16, 14 16, 16 17 C18 16, 20 16, 21 17" stroke="#7c3aed" stroke-width="1" fill="none"/>
  <path d="M12 20 C14 19, 16 19, 18 19 C18 19, 20 19, 20 20" stroke="#7c3aed" stroke-width="1" fill="none"/>
  
  <!-- Center line -->
  <line x1="16" y1="12" x2="16" y2="22" stroke="#7c3aed" stroke-width="1"/>
  
  <!-- Highlight -->
  <circle cx="12" cy="10" r="1.5" fill="rgba(255,255,255,0.3)"/>
</svg>