<svg width="32" height="32" viewBox="0 0 32 32" fill="none" xmlns="http://www.w3.org/2000/svg">
  <!-- Background circle -->
  <circle cx="16" cy="16" r="15" fill="#dc2626" stroke="#b91c1c" stroke-width="2"/>
  
  <!-- Medical cross -->
  <rect x="14" y="8" width="4" height="16" fill="white" rx="1"/>
  <rect x="8" y="14" width="16" height="4" fill="white" rx="1"/>
  
  <!-- Letter "S" for Simulator -->
  <path d="M12 20 C12 21, 13 22, 14 22 L18 22 C19 22, 20 21, 20 20 C20 19, 19 18, 18 18 L14 18 C13 18, 12 17, 12 16 C12 15, 13 14, 14 14 L18 14 C19 14, 20 15, 20 16" 
        stroke="#dc2626" stroke-width="1.5" fill="none" stroke-linecap="round"/>
  
  <!-- Small highlight -->
  <circle cx="12" cy="10" r="1.5" fill="rgba(255,255,255,0.4)"/>
</svg>